<?xml version="1.0" encoding="UTF-8"?>
<svg xmlns="http://www.w3.org/2000/svg" xmlns:xlink="http://www.w3.org/1999/xlink" width="425px" height="88px" viewBox="0 0 429 88" version="1.1">
<g id="surface1">
<path style=" stroke:none;fill-rule:nonzero;fill:rgb(1.176471%,74.509804%,95.686275%);fill-opacity:1;" d="M 90.476562 26.398438 L 90.476562 39.351562 L 111.980469 39.351562 L 111.980469 47.628906 L 90.476562 47.628906 L 90.476562 68.859375 L 82.113281 68.859375 L 82.113281 18.121094 L 122.816406 18.121094 L 122.816406 26.398438 Z M 90.476562 26.398438 "/>
<path style=" stroke:none;fill-rule:nonzero;fill:rgb(1.176471%,74.509804%,95.686275%);fill-opacity:1;" d="M 160.160156 32.753906 L 160.160156 68.886719 L 151.882812 68.886719 L 151.882812 64.128906 C 150.480469 65.890625 148.746094 67.265625 146.738281 68.28125 C 144.734375 69.300781 142.367188 69.765625 139.726562 69.765625 C 137.085938 69.765625 134.695312 69.273438 132.578125 68.28125 C 130.460938 67.292969 128.644531 65.945312 127.105469 64.238281 C 125.566406 62.535156 124.410156 60.527344 123.585938 58.246094 C 122.761719 55.960938 122.347656 53.488281 122.347656 50.847656 C 122.347656 48.207031 122.761719 45.734375 123.585938 43.449219 C 124.410156 41.167969 125.59375 39.160156 127.105469 37.453125 C 128.644531 35.75 130.460938 34.402344 132.578125 33.414062 C 134.695312 32.421875 137.058594 31.925781 139.726562 31.925781 C 142.367188 31.925781 144.703125 32.449219 146.738281 33.46875 C 148.773438 34.484375 150.480469 35.859375 151.882812 37.566406 L 151.882812 32.808594 L 160.160156 32.808594 Z M 141.324219 61.488281 C 142.78125 61.488281 144.15625 61.214844 145.421875 60.664062 C 146.683594 60.113281 147.8125 59.34375 148.773438 58.382812 C 149.738281 57.421875 150.507812 56.292969 151.058594 55 C 151.609375 53.707031 151.882812 52.332031 151.882812 50.847656 C 151.882812 49.390625 151.609375 48.015625 151.058594 46.75 C 150.507812 45.484375 149.738281 44.359375 148.773438 43.394531 C 147.8125 42.433594 146.683594 41.664062 145.421875 41.113281 C 144.15625 40.5625 142.78125 40.289062 141.324219 40.289062 C 139.863281 40.289062 138.460938 40.5625 137.171875 41.113281 C 135.878906 41.664062 134.75 42.433594 133.816406 43.394531 C 132.878906 44.359375 132.136719 45.484375 131.558594 46.75 C 131.011719 48.015625 130.734375 49.390625 130.734375 50.847656 C 130.734375 52.304688 131.011719 53.707031 131.558594 55 C 132.109375 56.292969 132.878906 57.421875 133.816406 58.382812 C 134.75 59.34375 135.878906 60.113281 137.171875 60.664062 C 138.460938 61.214844 139.835938 61.488281 141.324219 61.488281 Z M 141.324219 61.488281 "/>
<path style=" stroke:none;fill-rule:nonzero;fill:rgb(1.176471%,74.509804%,95.686275%);fill-opacity:1;" d="M 227.976562 43.421875 C 227.398438 41.140625 226.546875 39.132812 225.363281 37.425781 C 224.179688 35.722656 222.667969 34.375 220.824219 33.386719 C 218.984375 32.394531 216.726562 31.898438 214.085938 31.898438 C 210.925781 31.898438 208.285156 32.613281 206.167969 34.046875 C 204.050781 35.503906 202.398438 37.425781 201.246094 39.902344 C 200.117188 37.425781 198.550781 35.476562 196.488281 34.046875 C 194.425781 32.613281 191.785156 31.898438 188.566406 31.898438 C 186.175781 31.898438 184.058594 32.3125 182.269531 33.164062 C 180.484375 34.015625 178.996094 35.171875 177.816406 36.65625 L 177.816406 32.78125 L 169.453125 32.78125 L 169.453125 68.914062 L 177.816406 68.914062 L 177.816406 50.847656 C 177.816406 49.390625 178.007812 48.015625 178.421875 46.75 C 178.832031 45.484375 179.4375 44.386719 180.234375 43.394531 C 181.03125 42.433594 181.996094 41.664062 183.148438 41.113281 C 184.304688 40.5625 185.597656 40.289062 187.082031 40.289062 C 188.539062 40.289062 189.777344 40.5625 190.765625 41.113281 C 191.785156 41.691406 192.582031 42.433594 193.214844 43.394531 C 193.820312 44.359375 194.289062 45.484375 194.589844 46.75 C 194.863281 48.015625 195.03125 49.390625 195.03125 50.847656 L 195.03125 68.914062 L 203.308594 68.914062 L 203.308594 50.847656 C 203.308594 49.390625 203.5 48.015625 203.914062 46.75 C 204.324219 45.484375 204.929688 44.386719 205.726562 43.394531 C 206.523438 42.433594 207.515625 41.664062 208.671875 41.113281 C 209.851562 40.5625 211.171875 40.289062 212.65625 40.289062 C 214.113281 40.289062 215.351562 40.5625 216.34375 41.113281 C 217.359375 41.691406 218.15625 42.433594 218.761719 43.394531 C 219.394531 44.359375 219.835938 45.484375 220.136719 46.75 C 220.441406 48.015625 220.578125 49.390625 220.578125 50.847656 L 220.578125 68.914062 L 228.882812 68.914062 L 228.882812 50.847656 C 228.828125 48.179688 228.523438 45.703125 227.976562 43.421875 Z M 227.976562 43.421875 "/>
<path style=" stroke:none;fill-rule:nonzero;fill:rgb(1.176471%,74.509804%,95.686275%);fill-opacity:1;" d="M 338.609375 31.871094 L 338.609375 50.820312 C 338.609375 53.816406 337.808594 56.347656 336.1875 58.355469 C 334.566406 60.390625 332.28125 61.40625 329.367188 61.488281 C 327.910156 61.488281 326.644531 61.214844 325.628906 60.636719 C 324.582031 60.085938 323.785156 59.316406 323.152344 58.355469 C 322.519531 57.390625 322.078125 56.238281 321.832031 54.972656 C 321.558594 53.679688 321.421875 52.304688 321.421875 50.820312 L 321.421875 31.871094 L 313.058594 31.871094 L 313.058594 50.820312 C 313.058594 53.460938 313.335938 55.933594 313.914062 58.21875 C 314.460938 60.5 315.316406 62.507812 316.496094 64.210938 C 317.679688 65.917969 319.191406 67.265625 321.035156 68.253906 C 322.878906 69.246094 325.132812 69.738281 327.773438 69.738281 C 330.246094 69.738281 332.363281 69.328125 334.125 68.503906 C 335.886719 67.675781 337.398438 66.496094 338.609375 64.953125 L 338.609375 65.394531 C 338.609375 66.878906 338.332031 68.253906 337.78125 69.546875 C 337.203125 70.839844 336.460938 71.941406 335.5 72.902344 C 334.539062 73.835938 333.382812 74.609375 332.117188 75.15625 C 330.824219 75.734375 329.449219 75.984375 327.964844 75.984375 L 82.113281 75.984375 L 82.113281 84.34375 L 327.964844 84.34375 C 330.632812 84.34375 333.078125 83.847656 335.390625 82.859375 C 337.671875 81.839844 339.679688 80.492188 341.386719 78.816406 C 343.089844 77.109375 344.4375 75.101562 345.425781 72.820312 C 346.445312 70.539062 346.941406 68.0625 346.941406 65.421875 L 346.941406 31.871094 Z M 338.609375 31.871094 "/>
<path style=" stroke:none;fill-rule:nonzero;fill:rgb(1.176471%,74.509804%,95.686275%);fill-opacity:1;" d="M 242.246094 17.351562 C 239.414062 17.351562 237.132812 19.664062 237.132812 22.496094 C 237.132812 25.328125 239.414062 27.609375 242.246094 27.609375 C 245.078125 27.609375 247.390625 25.328125 247.390625 22.496094 C 247.390625 19.664062 245.109375 17.351562 242.246094 17.351562 Z M 242.246094 17.351562 "/>
<path style=" stroke:none;fill-rule:nonzero;fill:rgb(1.176471%,74.509804%,95.686275%);fill-opacity:1;" d="M 238.066406 31.871094 L 246.425781 31.871094 L 246.425781 68.886719 L 238.066406 68.886719 Z M 238.066406 31.871094 "/>
<path style=" stroke:none;fill-rule:nonzero;fill:rgb(1.176471%,74.509804%,95.686275%);fill-opacity:1;" d="M 259.875 3.601562 C 257.042969 3.601562 254.761719 5.886719 254.761719 8.746094 C 254.761719 11.578125 257.042969 13.859375 259.875 13.859375 C 262.707031 13.859375 265.015625 11.578125 265.015625 8.746094 C 265.015625 5.914062 262.707031 3.601562 259.875 3.601562 Z M 259.875 3.601562 "/>
<path style=" stroke:none;fill-rule:nonzero;fill:rgb(1.176471%,74.509804%,95.686275%);fill-opacity:1;" d="M 255.695312 18.121094 L 264.054688 18.121094 L 264.054688 68.886719 L 255.695312 68.886719 Z M 255.695312 18.121094 "/>
<path style=" stroke:none;fill-rule:nonzero;fill:rgb(1.176471%,74.509804%,95.686275%);fill-opacity:1;" d="M 280.859375 18.121094 C 283.691406 18.121094 286 15.839844 286 12.980469 C 286 10.148438 283.691406 7.863281 280.859375 7.863281 C 278.023438 7.863281 275.714844 10.148438 275.714844 12.980469 C 275.714844 15.839844 278.023438 18.121094 280.859375 18.121094 Z M 280.859375 18.121094 "/>
<path style=" stroke:none;fill-rule:nonzero;fill:rgb(1.176471%,74.509804%,95.686275%);fill-opacity:1;" d="M 295.433594 60.609375 C 293.949219 60.609375 292.574219 60.335938 291.28125 59.757812 C 289.988281 59.207031 288.859375 58.4375 287.898438 57.476562 C 286.933594 56.511719 286.164062 55.386719 285.613281 54.09375 C 285.066406 52.800781 284.789062 51.398438 284.789062 49.941406 L 284.789062 40.261719 L 294.910156 40.261719 L 294.910156 31.898438 L 284.789062 31.898438 L 284.789062 22.359375 L 276.511719 22.359375 L 276.511719 31.871094 L 273.351562 31.871094 L 273.351562 40.234375 L 276.511719 40.234375 L 276.511719 49.914062 C 276.511719 52.550781 277.007812 55.027344 277.996094 57.308594 C 278.988281 59.59375 280.335938 61.601562 282.039062 63.304688 C 283.746094 65.011719 285.753906 66.359375 288.035156 67.347656 C 290.316406 68.335938 292.792969 68.832031 295.460938 68.832031 L 303.820312 68.832031 L 303.820312 60.554688 L 295.433594 60.554688 Z M 295.433594 60.609375 "/>
</g>
</svg>
