<?xml version="1.0" encoding="UTF-8"?>
<svg version="1.1" xmlns="http://www.w3.org/2000/svg" width="202" height="197">
<path d="M0 0 C1.00869141 0.00902344 2.01738281 0.01804687 3.05664062 0.02734375 C5.51718457 0.05066644 7.97720896 0.08339237 10.4375 0.125 C9.7775 0.785 9.1175 1.445 8.4375 2.125 C10.231875 2.063125 10.231875 2.063125 12.0625 2 C15.91659755 1.86710008 18.79531648 2.89277681 22.4375 4.125 C26.93973071 5.25330741 31.47293315 6.25488319 36.00195312 7.26953125 C36.91267578 7.47964844 37.82339844 7.68976562 38.76171875 7.90625 C39.58760498 8.09251953 40.41349121 8.27878906 41.2644043 8.47070312 C43.4375 9.125 43.4375 9.125 46.4375 11.125 C48.10856479 11.71542484 49.79856076 12.2538513 51.5 12.75 C52.37785156 13.01039062 53.25570312 13.27078125 54.16015625 13.5390625 C56.36840055 14.2080582 56.36840055 14.2080582 58.4375 14.125 C56.7875 13.135 55.1375 12.145 53.4375 11.125 C54.4275 10.795 55.4175 10.465 56.4375 10.125 C64.90467134 14.99709367 72.47512449 22.06087783 79.3125 29 C81.44567151 31.2720871 81.44567151 31.2720871 84.4375 33.125 C85.0975 33.125 85.7575 33.125 86.4375 33.125 C87.90989759 36.06979519 89.38192522 39.01476323 90.8515625 41.9609375 C91.75439777 43.76216057 92.66233287 45.56090046 93.5859375 47.3515625 C97.36056545 54.68943923 100.62451413 61.83254414 101.4375 70.125 C101.86278455 72.43368754 102.33814552 74.71792777 102.89477539 76.99853516 C104.4524213 83.54345188 105.10485583 90.02854861 105.6484375 96.72265625 C105.84525468 98.86389141 106.13340709 100.9963496 106.4375 103.125 C107.0975 103.455 107.7575 103.785 108.4375 104.125 C108.72625 102.990625 109.015 101.85625 109.3125 100.6875 C109.869375 98.9240625 109.869375 98.9240625 110.4375 97.125 C111.0975 96.795 111.7575 96.465 112.4375 96.125 C115.7203518 104.52152478 114.43074478 113.74391461 111.4375 122.125 C110.87482422 123.71054688 110.87482422 123.71054688 110.30078125 125.328125 C106.4421904 135.84944781 106.4421904 135.84944781 103.4375 138.125 C102.7775 138.125 102.1175 138.125 101.4375 138.125 C101.1075 137.465 100.7775 136.805 100.4375 136.125 C97.50939187 140.93546336 95.32455472 145.70662507 93.3671875 150.98828125 C92.4375 153.125 92.4375 153.125 90.4375 155.125 C90.2725 156.259375 90.1075 157.39375 89.9375 158.5625 C88.4375 162.125 88.4375 162.125 86.40234375 163.00390625 C84.65299475 163.43380809 82.90152083 163.85512043 81.1484375 164.26953125 C76.44382878 165.7541268 73.16839678 169.00260203 69.4375 172.125 C67.49284135 173.62209926 65.5342074 175.10120831 63.5625 176.5625 C62.65757812 177.24183594 61.75265625 177.92117187 60.8203125 178.62109375 C58.4375 180.125 58.4375 180.125 55.4375 180.125 C55.4375 180.785 55.4375 181.445 55.4375 182.125 C32.90143772 194.00835025 2.5651885 194.42894037 -21.5625 187.125 C-25.07421875 185.625 -25.07421875 185.625 -27.5625 184.125 C-28.4375 181.9375 -28.4375 181.9375 -28.5625 180.125 C-29.2225 180.0425 -29.8825 179.96 -30.5625 179.875 C-35.93507586 178.53185603 -41.45365559 175.89144071 -45.5625 172.125 C-45.5625 171.465 -45.5625 170.805 -45.5625 170.125 C-46.09359375 169.85945312 -46.6246875 169.59390625 -47.171875 169.3203125 C-51.96875 166.921875 -56.765625 164.5234375 -61.5625 162.125 C-61.5625 161.135 -61.5625 160.145 -61.5625 159.125 C-62.2225 159.125 -62.8825 159.125 -63.5625 159.125 C-63.5625 158.465 -63.5625 157.805 -63.5625 157.125 C-64.2225 157.125 -64.8825 157.125 -65.5625 157.125 C-79.18324261 141.55843702 -85.79555117 120.08494712 -85.625 99.75 C-85.62048828 98.72777344 -85.61597656 97.70554687 -85.61132812 96.65234375 C-85.599603 94.14316806 -85.58319176 91.6341151 -85.5625 89.125 C-84.5725 89.125 -83.5825 89.125 -82.5625 89.125 C-81.9025 92.095 -81.2425 95.065 -80.5625 98.125 C-80.2325 94.495 -79.9025 90.865 -79.5625 87.125 C-80.2225 87.125 -80.8825 87.125 -81.5625 87.125 C-81.8925 86.135 -82.2225 85.145 -82.5625 84.125 C-83.5525 83.465 -84.5425 82.805 -85.5625 82.125 C-85.47474337 79.91595369 -85.36655633 77.70771407 -85.25 75.5 C-85.19199219 74.27023438 -85.13398437 73.04046875 -85.07421875 71.7734375 C-84.53759441 67.94742884 -83.57760606 65.40448633 -81.5625 62.125 C-79.375 61.25 -79.375 61.25 -77.5625 61.125 C-77.2325 63.435 -76.9025 65.745 -76.5625 68.125 C-75.72263916 66.19032058 -74.89081973 64.25214871 -74.0625 62.3125 C-73.5984375 61.23355469 -73.134375 60.15460938 -72.65625 59.04296875 C-71.38700697 56.17617976 -71.38700697 56.17617976 -71.5625 53.125 C-72.5525 53.785 -73.5425 54.445 -74.5625 55.125 C-75.92032242 51.05153275 -74.33819205 48.77807572 -72.5625 45.125 C-72.088125 44.135 -71.61375 43.145 -71.125 42.125 C-70.609375 41.135 -70.09375 40.145 -69.5625 39.125 C-69.005625 37.990625 -68.44875 36.85625 -67.875 35.6875 C-65.36571951 31.31334568 -61.64505058 28.03227087 -57.5625 25.125 C-56.9025 25.125 -56.2425 25.125 -55.5625 25.125 C-55.5625 24.135 -55.5625 23.145 -55.5625 22.125 C-53.92459288 21.07855934 -52.25241979 20.0851817 -50.5625 19.125 C-49.19265802 17.82920353 -47.8473951 16.50507251 -46.5625 15.125 C-45.9025 15.455 -45.2425 15.785 -44.5625 16.125 C-45.8825 17.445 -47.2025 18.765 -48.5625 20.125 C-44.09745041 17.9779307 -39.89288225 15.40117261 -35.6328125 12.87890625 C-32.65731721 11.17916403 -29.64143315 9.62770319 -26.5625 8.125 C-28.0214426 8.60230838 -29.47963496 9.08191042 -30.9375 9.5625 C-31.74960937 9.82933594 -32.56171875 10.09617187 -33.3984375 10.37109375 C-35.57281799 11.07679729 -35.57281799 11.07679729 -37.5625 12.125 C-36.5625 9.125 -36.5625 9.125 -33.28125 7.37109375 C-31.87987103 6.75699137 -30.47332176 6.15458675 -29.0625 5.5625 C-28.03769531 5.10713867 -28.03769531 5.10713867 -26.9921875 4.64257812 C-17.97658062 0.76789315 -9.7692541 -0.168101 0 0 Z M-51.5625 21.125 C-51.2325 21.785 -50.9025 22.445 -50.5625 23.125 C-50.2325 22.465 -49.9025 21.805 -49.5625 21.125 C-50.2225 21.125 -50.8825 21.125 -51.5625 21.125 Z M-38.5625 34.125 C-38.5625 78.675 -38.5625 123.225 -38.5625 169.125 C-22.0625 169.125 -5.5625 169.125 11.4375 169.125 C9.9834375 157.3378125 9.9834375 157.3378125 8.5 145.3125 C8.19586182 142.83387451 7.89172363 140.35524902 7.57836914 137.80151367 C7.33504279 135.84030167 7.09148752 133.87911804 6.84765625 131.91796875 C6.66100403 130.38638123 6.66100403 130.38638123 6.47058105 128.82385254 C6.28803772 127.36259949 6.28803772 127.36259949 6.10180664 125.87182617 C5.9974379 125.02577316 5.89306915 124.17972015 5.78553772 123.30802917 C5.47103036 120.95405314 5.47103036 120.95405314 4.4375 118.125 C5.55608398 118.18558594 6.67466797 118.24617188 7.82714844 118.30859375 C12.03156937 118.53545879 16.23620703 118.7580727 20.44091797 118.97949219 C22.25054877 119.07536241 24.06012127 119.17234046 25.86962891 119.27050781 C28.49106009 119.41252012 31.11268467 119.55036447 33.734375 119.6875 C34.52551697 119.73124756 35.31665894 119.77499512 36.1317749 119.82006836 C42.5934608 120.15182197 48.93964471 120.125 55.4375 120.125 C55.4375 112.205 55.4375 104.285 55.4375 96.125 C38.74235088 96.01219494 22.11786502 96.43563781 5.4375 97.125 C5.1075 93.825 4.7775 90.525 4.4375 87.125 C5.2718457 87.18034912 6.10619141 87.23569824 6.96582031 87.29272461 C26.66525285 88.60633724 26.66525285 88.60633724 46.375 89.75 C47.42252441 89.80982056 47.42252441 89.80982056 48.49121094 89.87084961 C56.15504043 90.25689407 63.73342546 90.125 71.4375 90.125 C71.4375 71.645 71.4375 53.165 71.4375 34.125 C35.1375 34.125 -1.1625 34.125 -38.5625 34.125 Z M-67.5625 39.125 C-67.2325 39.785 -66.9025 40.445 -66.5625 41.125 C-66.2325 40.465 -65.9025 39.805 -65.5625 39.125 C-66.2225 39.125 -66.8825 39.125 -67.5625 39.125 Z M-66.5625 46.125 C-67.2225 46.785 -67.8825 47.445 -68.5625 48.125 C-68.2325 49.115 -67.9025 50.105 -67.5625 51.125 C-66.9025 49.475 -66.2425 47.825 -65.5625 46.125 C-65.8925 46.125 -66.2225 46.125 -66.5625 46.125 Z M-82.5625 103.125 C-81.5625 106.125 -81.5625 106.125 -81.5625 106.125 Z M104.4375 111.125 C104.4375 112.775 104.4375 114.425 104.4375 116.125 C104.7675 116.125 105.0975 116.125 105.4375 116.125 C105.4375 114.475 105.4375 112.825 105.4375 111.125 C105.1075 111.125 104.7775 111.125 104.4375 111.125 Z M103.4375 117.125 C104.4375 120.125 104.4375 120.125 104.4375 120.125 Z M100.4375 127.125 C101.4375 129.125 101.4375 129.125 101.4375 129.125 Z M98.4375 132.125 C99.4375 134.125 99.4375 134.125 99.4375 134.125 Z M-9.5625 186.125 C-9.5625 186.455 -9.5625 186.785 -9.5625 187.125 C-6.9225 187.125 -4.2825 187.125 -1.5625 187.125 C-1.5625 186.795 -1.5625 186.465 -1.5625 186.125 C-4.2025 186.125 -6.8425 186.125 -9.5625 186.125 Z M-1.5625 187.125 C-1.5625 187.455 -1.5625 187.785 -1.5625 188.125 C3.7175 188.125 8.9975 188.125 14.4375 188.125 C14.4375 187.795 14.4375 187.465 14.4375 187.125 C9.1575 187.125 3.8775 187.125 -1.5625 187.125 Z M16.4375 187.125 C16.4375 187.455 16.4375 187.785 16.4375 188.125 C18.4175 188.125 20.3975 188.125 22.4375 188.125 C22.4375 187.795 22.4375 187.465 22.4375 187.125 C20.4575 187.125 18.4775 187.125 16.4375 187.125 Z " fill="#FC4A3F" transform="translate(86.5625,4.875)"/>
<path d="M0 0 C8.42743511 -0.08998024 16.79041149 0.17246886 25.203125 0.65625 C26.4069281 0.72283813 27.6107312 0.78942627 28.85101318 0.85803223 C32.65085569 1.06892525 36.4504229 1.28438353 40.25 1.5 C42.84503517 1.64483465 45.44008713 1.78936874 48.03515625 1.93359375 C54.35696901 2.28559031 60.67856291 2.64132327 67 3 C67 3.66 67 4.32 67 5 C64.35409986 5.02684679 61.70846904 5.04676357 59.0625 5.0625 C57.93038086 5.07506836 57.93038086 5.07506836 56.77539062 5.08789062 C54.85005687 5.09652441 52.92464419 5.05224333 51 5 C50.505 4.505 50.505 4.505 50 4 C48.48530552 3.76807135 46.96245438 3.58784762 45.4375 3.4375 C44.19806641 3.31181641 44.19806641 3.31181641 42.93359375 3.18359375 C42.29550781 3.12300781 41.65742188 3.06242187 41 3 C41 4.32 41 5.64 41 7 C44.3 7 47.6 7 51 7 C51 7.66 51 8.32 51 9 C43.89783953 9.31036394 36.79537156 9.61272996 29.69262695 9.90942383 C27.27425342 10.01140245 24.8559576 10.11524103 22.43774414 10.22094727 C18.97040035 10.37219532 15.50283599 10.51684521 12.03515625 10.66015625 C10.94662857 10.70906509 9.85810089 10.75797394 8.73658752 10.80836487 C7.73562546 10.8484819 6.73466339 10.88859894 5.70336914 10.92993164 C4.81734512 10.96768204 3.93132111 11.00543243 3.01844788 11.04432678 C1 11 1 11 0 10 C-0.1424478 6.66672158 -0.04222103 3.33546107 0 0 Z " fill="#EE4E44" transform="translate(91,92)"/>
<path d="M0 0 C3.11699376 3.11699376 2.83559394 6.72544256 3 11 C2.5884754 20.32789086 -0.60296533 33.58482244 -6.53515625 40.890625 C-8 42 -8 42 -10 42 C-10.33 41.34 -10.66 40.68 -11 40 C-11.61875 41.11375 -12.2375 42.2275 -12.875 43.375 C-14.13281231 45.63906215 -15.14615142 47.14615142 -17 49 C-17 47.02 -17 45.04 -17 43 C-16.01 42.505 -16.01 42.505 -15 42 C-14.27113266 39.2303041 -14 36.87137415 -14 34 C-14 32.33333333 -14 30.66666667 -14 29 C-13.34 28.67 -12.68 28.34 -12 28 C-11.34 27.01 -10.68 26.02 -10 25 C-9.34 25.33 -8.68 25.66 -8 26 C-8 25.34 -8 24.68 -8 24 C-8.99 23.67 -9.98 23.34 -11 23 C-10.67 22.01 -10.34 21.02 -10 20 C-9.34 20 -8.68 20 -8 20 C-8.020625 19.05125 -8.04125 18.1025 -8.0625 17.125 C-8 14 -8 14 -7 12 C-6.34 12 -5.68 12 -5 12 C-5 10.35 -5 8.7 -5 7 C-4.34 7.33 -3.68 7.66 -3 8 C-2.690625 6.865625 -2.38125 5.73125 -2.0625 4.5625 C-1 1 -1 1 0 0 Z M-7 15 C-7 16.65 -7 18.3 -7 20 C-6.67 20 -6.34 20 -6 20 C-6 18.35 -6 16.7 -6 15 C-6.33 15 -6.66 15 -7 15 Z M-8 21 C-7 24 -7 24 -7 24 Z M-11 31 C-10 33 -10 33 -10 33 Z " fill="#F24E43" transform="translate(198,101)"/>
<path d="M0 0 C0.33 0.66 0.66 1.32 1 2 C3.57437581 2.91280138 3.57437581 2.91280138 6.5625 3.625 C7.57441406 3.88539063 8.58632812 4.14578125 9.62890625 4.4140625 C10.80259766 4.70410156 10.80259766 4.70410156 12 5 C12 5.33 12 5.66 12 6 C15.3 6.33 18.6 6.66 22 7 C22 7.33 22 7.66 22 8 C24.475 8.495 24.475 8.495 27 9 C27 9.33 27 9.66 27 10 C16.15386956 10.39202881 5.73583496 10.35583429 -4.9375 8.1875 C-5.75831055 8.02217773 -6.57912109 7.85685547 -7.42480469 7.68652344 C-11.99712623 6.67867672 -15.87964139 5.30819447 -20 3 C-17.01405576 1.50702788 -14.29146376 1.88244772 -11 2 C-10.34 2.33 -9.68 2.66 -9 3 C-7.68 3 -6.36 3 -5 3 C-5 2.34 -5 1.68 -5 1 C-3 0 -3 0 0 0 Z M-2 5 C-2 5.33 -2 5.66 -2 6 C0.64 6 3.28 6 6 6 C6 5.67 6 5.34 6 5 C3.36 5 0.72 5 -2 5 Z " fill="#E3564D" transform="translate(79,186)"/>
<path d="M0 0 C0.66 0 1.32 0 2 0 C2 12.18181818 2 12.18181818 1 15 C0.01 15.33 -0.98 15.66 -2 16 C-1.34 16 -0.68 16 0 16 C0 17.32 0 18.64 0 20 C-1.32 20 -2.64 20 -4 20 C-4.33 20.66 -4.66 21.32 -5 22 C-6.66666667 22 -8.33333333 22 -10 22 C-7.98474571 13.93898285 -4.16437303 7.1389252 0 0 Z M-2 7 C-1.67 7.66 -1.34 8.32 -1 9 C-0.67 8.34 -0.34 7.68 0 7 C-0.66 7 -1.32 7 -2 7 Z " fill="#E95147" transform="translate(21,37)"/>
<path d="M0 0 C1.25541557 3.76624671 0.37061958 5.37188934 -1 9 C-1.66 9 -2.32 9 -3 9 C-3.0825 9.78375 -3.165 10.5675 -3.25 11.375 C-4 14 -4 14 -6.0625 15.3125 C-7.0215625 15.6528125 -7.0215625 15.6528125 -8 16 C-8.12375 15.360625 -8.2475 14.72125 -8.375 14.0625 C-8.58125 13.381875 -8.7875 12.70125 -9 12 C-9.66 11.67 -10.32 11.34 -11 11 C-11.12375 11.763125 -11.2475 12.52625 -11.375 13.3125 C-12 16 -12 16 -14 19 C-14.34568576 14.16039934 -13.66280693 11.08931064 -11 7 C-8.8125 6.125 -8.8125 6.125 -7 6 C-6.67 8.31 -6.34 10.62 -6 13 C-5.65066406 12.14535156 -5.30132812 11.29070312 -4.94140625 10.41015625 C-4.48636719 9.30542969 -4.03132812 8.20070313 -3.5625 7.0625 C-3.11003906 5.96035156 -2.65757813 4.85820313 -2.19140625 3.72265625 C-1 1 -1 1 0 0 Z " fill="#DA5650" transform="translate(16,60)"/>
<path d="M0 0 C0.66 0.33 1.32 0.66 2 1 C-0.66666667 3.66666667 -3.33333333 6.33333333 -6 9 C-5.34 9.33 -4.68 9.66 -4 10 C-9.75 15 -9.75 15 -12 15 C-12 15.99 -12 16.98 -12 18 C-13.65 17.67 -15.3 17.34 -17 17 C-15.61122646 13.64379729 -14.08322035 11.92701272 -11 10 C-10.34 10 -9.68 10 -9 10 C-9 9.01 -9 8.02 -9 7 C-7.36209288 5.95355934 -5.68991979 4.9601817 -4 4 C-2.63015802 2.70420353 -1.2848951 1.38007251 0 0 Z " fill="#EB4B43" transform="translate(40,20)"/>
<path d="M0 0 C0.99 0 1.98 0 3 0 C3.33 3.63 3.66 7.26 4 11 C3.67 11 3.34 11 3 11 C2.67 16.61 2.34 22.22 2 28 C1.67 28 1.34 28 1 28 C-0.25406138 22.21354356 -0.11186913 16.51131884 -0.0625 10.625 C-0.05798828 9.60277344 -0.05347656 8.58054687 -0.04882812 7.52734375 C-0.037103 5.01816806 -0.02069176 2.5091151 0 0 Z " fill="#DD5752" transform="translate(1,94)"/>
<path d="M0 0 C0.66 0 1.32 0 2 0 C2 4.62 2 9.24 2 14 C2.66 14 3.32 14 4 14 C4 14.66 4 15.32 4 16 C4.66 16 5.32 16 6 16 C6 15.01 6 14.02 6 13 C6.66 13 7.32 13 8 13 C8.33 14.65 8.66 16.3 9 18 C7.68 17.67 6.36 17.34 5 17 C4.67 19.31 4.34 21.62 4 24 C3.34 23.67 2.68 23.34 2 23 C1.51616282 20.43745494 1.15617565 17.96089411 0.875 15.375 C0.78863281 14.67503906 0.70226562 13.97507813 0.61328125 13.25390625 C0.09351029 8.80697695 -0.08223526 4.47594771 0 0 Z " fill="#E65449" transform="translate(95,150)"/>
<path d="M0 0 C3.47775179 1.51553404 5.9557984 3.5773456 8.75 6.125 C9.94882813 7.21167969 9.94882813 7.21167969 11.171875 8.3203125 C11.77515625 8.87460937 12.3784375 9.42890625 13 10 C12.67 10.66 12.34 11.32 12 12 C11.01 11.67 10.02 11.34 9 11 C8.67 11.99 8.34 12.98 8 14 C7.34 14 6.68 14 6 14 C4.74335022 11.09399739 4 9.20395416 4 6 C3.34 5.67 2.68 5.34 2 5 C2 4.01 2 3.02 2 2 C1.34 2 0.68 2 0 2 C0 1.34 0 0.68 0 0 Z " fill="#E95048" transform="translate(150,21)"/>
<path d="M0 0 C1.09731445 0.00676758 1.09731445 0.00676758 2.21679688 0.01367188 C3.99873419 0.02531852 5.78062863 0.04324809 7.5625 0.0625 C7.5625 0.3925 7.5625 0.7225 7.5625 1.0625 C10.0375 1.5575 10.0375 1.5575 12.5625 2.0625 C12.5625 2.3925 12.5625 2.7225 12.5625 3.0625 C9.20835201 3.09179977 5.85423747 3.1093989 2.5 3.125 C1.55705078 3.13337891 0.61410156 3.14175781 -0.35742188 3.15039062 C-5.5005768 3.16831103 -10.37008427 2.95509611 -15.4375 2.0625 C-15.4375 1.7325 -15.4375 1.4025 -15.4375 1.0625 C-10.23576905 0.19440561 -5.26771184 -0.06265348 0 0 Z " fill="#D25A52" transform="translate(93.4375,192.9375)"/>
<path d="M0 0 C-1.43032837 1.17544805 -2.86953242 2.34010262 -4.3125 3.5 C-5.11300781 4.1496875 -5.91351563 4.799375 -6.73828125 5.46875 C-9 7 -9 7 -12 7 C-12 7.66 -12 8.32 -12 9 C-13.98 9.66 -15.96 10.32 -18 11 C-18 10.34 -18 9.68 -18 9 C-16.68 8.67 -15.36 8.34 -14 8 C-14 7.34 -14 6.68 -14 6 C-13.195625 5.7525 -12.39125 5.505 -11.5625 5.25 C-8.828919 4.27761141 -8.828919 4.27761141 -8.1875 1.875 C-8.125625 1.25625 -8.06375 0.6375 -8 0 C-4.90645403 -0.99435406 -3.09720845 -0.87840996 0 0 Z " fill="#E3544C" transform="translate(154,178)"/>
<path d="M0 0 C2.97 0 5.94 0 9 0 C8.34 1.32 7.68 2.64 7 4 C6.01 4.33 5.02 4.66 4 5 C3.67 4.34 3.34 3.68 3 3 C2.071875 4.670625 2.071875 4.670625 1.125 6.375 C-0.13281231 8.63906215 -1.14615142 10.14615142 -3 12 C-3 10.02 -3 8.04 -3 6 C-2.34 5.67 -1.68 5.34 -1 5 C-0.34444881 2.47266765 -0.34444881 2.47266765 0 0 Z " fill="#DE5650" transform="translate(184,138)"/>
<path d="M0 0 C1.65 0 3.3 0 5 0 C4.34 0.66 3.68 1.32 3 2 C4.19625 1.95875 5.3925 1.9175 6.625 1.875 C10.45629025 1.86825477 13.39130202 2.66635075 17 4 C18.99369031 4.36920191 20.99279077 4.71325582 23 5 C23 5.33 23 5.66 23 6 C17.66017891 6.18413176 14.08513763 5.69504588 9 4 C6.30691223 3.83351821 3.70223363 3.90681953 1 4 C0.67 2.68 0.34 1.36 0 0 Z " fill="#D95D52" transform="translate(92,5)"/>
<path d="M0 0 C-0.99 0.33 -1.98 0.66 -3 1 C-3.33 1.99 -3.66 2.98 -4 4 C-4.66 3.67 -5.32 3.34 -6 3 C-6.33 3.66 -6.66 4.32 -7 5 C-8 6 -8 6 -11.0625 6.0625 C-12.5165625 6.0315625 -12.5165625 6.0315625 -14 6 C-11.72698066 3.45655714 -9.54913519 2.12383563 -6.4375 0.75 C-5.65246094 0.39421875 -4.86742187 0.0384375 -4.05859375 -0.328125 C-2 -1 -2 -1 0 0 Z " fill="#E95350" transform="translate(59,16)"/>
<path d="M0 0 C0 0.66 0 1.32 0 2 C-0.66 2 -1.32 2 -2 2 C-2 3.32 -2 4.64 -2 6 C-2.99 5.67 -3.98 5.34 -5 5 C-9.33094958 5 -11.27034861 5.96564469 -15 8 C-14 5 -14 5 -11.6015625 3.61328125 C-10.12816406 2.96939453 -10.12816406 2.96939453 -8.625 2.3125 C-7.64789063 1.87550781 -6.67078125 1.43851563 -5.6640625 0.98828125 C-3 0 -3 0 0 0 Z " fill="#D0655F" transform="translate(64,9)"/>
<path d="M0 0 C-2.64 1.98 -5.28 3.96 -8 6 C-8.66 5.67 -9.32 5.34 -10 5 C-10 3.68 -10 2.36 -10 1 C-8.71073008 0.63720544 -7.41846728 0.28503302 -6.125 -0.0625 C-5.40570313 -0.25972656 -4.68640625 -0.45695313 -3.9453125 -0.66015625 C-2 -1 -2 -1 0 0 Z " fill="#E9504B" transform="translate(164,171)"/>
<path d="M0 0 C3.63 0 7.26 0 11 0 C8.18343868 2.81656132 6.38398395 2.98950864 2.42578125 3.09765625 C1.05465342 3.09103244 -0.31645717 3.07914198 -1.6875 3.0625 C-2.38939453 3.05798828 -3.09128906 3.05347656 -3.81445312 3.04882812 C-5.54300538 3.03706927 -7.27151365 3.01913454 -9 3 C-9 2.67 -9 2.34 -9 2 C-6.03 2 -3.06 2 0 2 C0 1.34 0 0.68 0 0 Z " fill="#EC5344" transform="translate(101,192)"/>
<path d="M0 0 C0.99 0 1.98 0 3 0 C4.66666667 1.66666667 6.33333333 3.33333333 8 5 C10.17346568 5.86119134 10.17346568 5.86119134 12 6 C12 6.66 12 7.32 12 8 C10.56068883 7.54738642 9.12361001 7.08767021 7.6875 6.625 C6.88699219 6.36976563 6.08648437 6.11453125 5.26171875 5.8515625 C3 5 3 5 0 3 C0 2.01 0 1.02 0 0 Z " fill="#DC564F" transform="translate(25,164)"/>
<path d="M0 0 C2 0 2 0 4.5 2.375 C5.325 3.24125 6.15 4.1075 7 5 C7.66 5.66 8.32 6.32 9 7 C9.625 9.625 9.625 9.625 10 12 C9.34 12 8.68 12 8 12 C6.5625 10.390625 6.5625 10.390625 5 8.25 C4.484375 7.55390625 3.96875 6.8578125 3.4375 6.140625 C2.10004751 4.14898379 1.01644577 2.16972077 0 0 Z " fill="#DC534D" transform="translate(13,150)"/>
<path d="M0 0 C0.66 0.33 1.32 0.66 2 1 C0.33333333 2.66666667 -1.33333333 4.33333333 -3 6 C-3.721875 6.763125 -4.44375 7.52625 -5.1875 8.3125 C-7 10 -7 10 -9 10 C-9 9.01 -9 8.02 -9 7 C-7.36209288 5.95355934 -5.68991979 4.9601817 -4 4 C-2.63015802 2.70420353 -1.2848951 1.38007251 0 0 Z " fill="#CE6560" transform="translate(40,20)"/>
<path d="M0 0 C1.91635217 -0.05423638 3.83314925 -0.09289963 5.75 -0.125 C7.35101563 -0.15980469 7.35101563 -0.15980469 8.984375 -0.1953125 C11.92470106 -0.00487687 13.52361878 0.47329896 16 2 C12.32192463 3.22602512 10.11756073 2.70295577 6.3125 2.0625 C5.13300781 1.86785156 3.95351562 1.67320312 2.73828125 1.47265625 C1.38283203 1.23869141 1.38283203 1.23869141 0 1 C0 0.67 0 0.34 0 0 Z " fill="#C26E6A" transform="translate(99,4)"/>
<path d="M0 0 C4.84659077 0.59104765 8.60748167 1.97944157 13 4 C12.67 4.66 12.34 5.32 12 6 C9.69 5.34 7.38 4.68 5 4 C5 3.34 5 2.68 5 2 C3.35 1.67 1.7 1.34 0 1 C0 0.67 0 0.34 0 0 Z " fill="#E0574E" transform="translate(134,17)"/>
<path d="M0 0 C0.05399736 1.45792884 0.09279177 2.91642712 0.125 4.375 C0.14820313 5.18710938 0.17140625 5.99921875 0.1953125 6.8359375 C0 9 0 9 -2 11 C-2 9.02 -2 7.04 -2 5 C-2.66 4.67 -3.32 4.34 -4 4 C-3.67 3.01 -3.34 2.02 -3 1 C-1 0 -1 0 0 0 Z " fill="#EE5045" transform="translate(181,145)"/>
<path d="M0 0 C0.66 0.33 1.32 0.66 2 1 C1.505 1.78375 1.01 2.5675 0.5 3.375 C-1.16537965 5.78552327 -1.16537965 5.78552327 -1 8 C-1.66 8 -2.32 8 -3 8 C-3.66 7.34 -4.32 6.68 -5 6 C-5.66 5.67 -6.32 5.34 -7 5 C-6.030625 4.360625 -5.06125 3.72125 -4.0625 3.0625 C-1.23963731 1.3034741 -1.23963731 1.3034741 0 0 Z " fill="#EA5142" transform="translate(43,22)"/>
<path d="M0 0 C3.3 0.33 6.6 0.66 10 1 C10 1.66 10 2.32 10 3 C6.7 3 3.4 3 0 3 C0 2.01 0 1.02 0 0 Z " fill="#E45347" transform="translate(75,191)"/>
<path d="M0 0 C1.32 0.33 2.64 0.66 4 1 C3.67 1.66 3.34 2.32 3 3 C2.34 2.67 1.68 2.34 1 2 C0.87625 2.763125 0.7525 3.52625 0.625 4.3125 C0 7 0 7 -2 10 C-2.17942163 6.05272412 -2.09350689 3.4019487 0 0 Z " fill="#EA5146" transform="translate(4,69)"/>
<path d="M0 0 C0.33 0 0.66 0 1 0 C1.33 2.64 1.66 5.28 2 8 C0.68 8.33 -0.64 8.66 -2 9 C-2.33 8.34 -2.66 7.68 -3 7 C-2.67 6.34 -2.34 5.68 -2 5 C-1.34 5 -0.68 5 0 5 C0 3.35 0 1.7 0 0 Z " fill="#E64F44" transform="translate(190,116)"/>
<path d="M0 0 C1.4800841 0.11362262 2.95910074 0.24122908 4.4375 0.375 C5.26121094 0.44460937 6.08492188 0.51421875 6.93359375 0.5859375 C7.95646484 0.79089844 7.95646484 0.79089844 9 1 C9.33 1.66 9.66 2.32 10 3 C7.03 3 4.06 3 1 3 C0.67 2.01 0.34 1.02 0 0 Z " fill="#ED4036" transform="translate(65,188)"/>
<path d="M0 0 C0.99 0.66 1.98 1.32 3 2 C1.125 3.0625 1.125 3.0625 -1 4 C-1.66 3.67 -2.32 3.34 -3 3 C-3 3.66 -3 4.32 -3 5 C-3.99 4.67 -4.98 4.34 -6 4 C-5.34 3.34 -4.68 2.68 -4 2 C-2.68 2 -1.36 2 0 2 C0 1.34 0 0.68 0 0 Z " fill="#E9574C" transform="translate(33,28)"/>
<path d="M0 0 C0.99 0.33 1.98 0.66 3 1 C3 1.66 3 2.32 3 3 C2.34 3 1.68 3 1 3 C0.67 3.66 0.34 4.32 0 5 C-0.33 4.01 -0.66 3.02 -1 2 C-0.67 1.34 -0.34 0.68 0 0 Z " fill="#CD6F6B" transform="translate(196,97)"/>
<path d="M0 0 C2.475 0.495 2.475 0.495 5 1 C3.68 1.33 2.36 1.66 1 2 C0.67 1.34 0.34 0.68 0 0 Z " fill="#D67372" transform="translate(127,10)"/>
<path d="M0 0 C0.99 0.33 1.98 0.66 3 1 C2.01 1 1.02 1 0 1 C0 0.67 0 0.34 0 0 Z " fill="#C8717A" transform="translate(121,8)"/>
<path d="M0 0 C0.33 0.66 0.66 1.32 1 2 C0.34 1.67 -0.32 1.34 -1 1 C-0.67 0.67 -0.34 0.34 0 0 Z " fill="#AF6760" transform="translate(43,18)"/>
<path d="M0 0 C2 1 2 1 2 1 Z " fill="#957878" transform="translate(134,13)"/>
<path d="M0 0 C2 1 2 1 2 1 Z " fill="#B28279" transform="translate(132,12)"/>
<path d="M0 0 C2 1 2 1 2 1 Z " fill="#CC3333" transform="translate(119,7)"/>
<path d="" fill="#FF0000" transform="translate(0,0)"/>
<path d="" fill="#FF0000" transform="translate(0,0)"/>
<path d="" fill="#9E7575" transform="translate(0,0)"/>
<path d="" fill="#808080" transform="translate(0,0)"/>
<path d="" fill="#978074" transform="translate(0,0)"/>
</svg>
